<svg viewBox="0 0 100 100" version="1.1" class="logo" aria-labelledby="logo-title">
  <defs id="defs1">
    <clipPath clipPathUnits="userSpaceOnUse" id="clipPath1">
      <path id="path1"
        d="m 225.272,5540.921 c 0,-24.402 19.783,-44.184 44.185,-44.184 v 0 c 24.403,0 44.184,19.782 44.184,44.184 v 0 c 0,24.402 -19.781,44.184 -44.184,44.184 v 0 c -24.402,0 -44.185,-19.782 -44.185,-44.184" />
    </clipPath>
    <clipPath clipPathUnits="userSpaceOnUse" id="clipPath2">
      <path id="path2"
        d="m -110.0591,-2.9530013 c 0,-24.4019987 19.782997,-44.1839997 44.184997,-44.1839997 v 0 c 24.402999,0 44.184,19.782001 44.184,44.1839997 v 0 c 0,24.4020013 -19.781001,44.1840013 -44.184,44.1840013 v 0 c -24.402,0 -44.184997,-19.782 -44.184997,-44.1840013" />
    </clipPath>
  </defs>
  <title id="logo-title">Логитип Федерации Го Санкт-Петербурга</title>
  <g id="g7" class="logo">
    <g id="g5" class="logo__logo">
      <path transform="matrix(1.1316185,0,0,-1.13162,124.54492,46.657804)" clip-path="url(#clipPath2)"
        d="m 0,0 h -31.099 v 3.737 h -0.61 c 0,1.365 -1.548,2.47 -3.457,2.47 -1.914,0 -3.461,-1.105 -3.461,-2.47 h -0.611 V 0 h -4.193 c 0.044,0.126 0.08,0.257 0.08,0.399 0,0.683 -0.552,1.237 -1.236,1.237 -0.357,0 -0.673,-0.157 -0.898,-0.399 -0.271,0.531 -0.791,0.899 -1.404,0.982 v 1.518 h -1.132 v 2.211 c 0,0.762 -0.459,1.418 -1.115,1.71 -0.233,0.102 -0.487,0.161 -0.757,0.161 -0.269,0 -0.523,-0.059 -0.755,-0.161 -0.656,-0.29 -1.115,-0.947 -1.115,-1.71 h -0.001 V 3.737 h -6.523 v 4.407 c 0,1.383 -0.753,2.587 -1.873,3.235 -0.549,0.321 -1.187,0.506 -1.868,0.506 -0.684,0 -1.322,-0.187 -1.872,-0.506 -1.118,-0.648 -1.871,-1.852 -1.871,-3.235 V 3.737 0 h -3.038 c 0,0.636 -0.517,1.154 -1.153,1.156 -0.383,0.604 -1.054,1.007 -1.822,1.007 -0.626,0 -1.188,-0.273 -1.584,-0.701 -0.044,0.005 -0.088,0.015 -0.132,0.015 -0.815,0 -1.476,-0.662 -1.476,-1.477 h -1.74 v 5.38 c 0,0.57 -0.342,1.057 -0.832,1.273 -0.173,0.076 -0.362,0.122 -0.562,0.122 -0.202,0 -0.391,-0.046 -0.564,-0.122 -0.489,-0.215 -0.831,-0.703 -0.831,-1.273 h -0.001 V 0 h -38.564 l -3.347,-3.012 H 3.41 Z" />
      <g id="g4" transform="matrix(1.1316185,0,0,-1.13162,-254.92196,6320.2165)" clip-path="url(#clipPath1)">
        <path transform="translate(224.8574,5540.9219)"
          d="M 0.09194448,-2.8852222 C 1.5783799,-26.17293 20.936767,-44.600098 44.599805,-44.600098 c 23.662076,0 43.020969,18.427168 44.507403,41.7148758 h -9.732327 v -3.7372963 h -0.610097 c 0,-1.365 -1.547912,-2.4696112 -3.456912,-2.4696112 -1.914,0 -3.461022,1.1046112 -3.461022,2.4696112 h -0.611011 v 3.7372963 h -4.193047 c 0.044,-0.127 0.07991,-0.2580332 0.07991,-0.4000332 0,-0.681 -0.55172,-1.2361756 -1.23572,-1.2361756 -0.357,0 -0.673163,0.1572066 -0.899163,0.3982066 -0.27,-0.53 -0.790858,-0.8989033 -1.402858,-0.9809033 v -1.5183908 h -1.132972 v -2.2115989 c 0,-0.762 -0.459249,-1.4172746 -1.114249,-1.7092746 -0.233,-0.102 -0.487142,-0.160744 -0.757142,-0.160744 -0.269,0 -0.522771,0.05874 -0.755771,0.160744 -0.655,0.29 -1.114249,0.9462746 -1.114249,1.7092746 h -9.14e-4 v 2.2115989 H 52.18674 v -4.4067585 c 0,-1.383 -0.75276,-2.587971 -1.87276,-3.234971 -0.549,-0.322 -1.187194,-0.505978 -1.868194,-0.505978 -0.684,0 -1.322217,0.186978 -1.873217,0.505978 -1.117,0.647 -1.869564,1.851971 -1.869564,3.234971 v 4.4067585 3.7372963 h -3.038156 c 0,-0.636 -0.517065,-1.1542603 -1.153065,-1.1562603 -0.383,-0.604 -1.054071,-1.0069328 -1.822071,-1.0069328 -0.626,0 -1.187696,0.272058 -1.583696,0.700058 -0.044,-0.004 -0.08843,-0.014156 -0.132431,-0.014156 -0.816,0 -1.475923,0.6622915 -1.475923,1.4772915 H 33.75779 v -5.3798983 c 0,-0.57 -0.342033,-1.0570783 -0.832033,-1.2740783 -0.173,-0.076 -0.362062,-0.1219279 -0.563062,-0.1219279 -0.201,0 -0.390061,0.045928 -0.563061,0.1219279 -0.489,0.215 -0.830663,0.7040783 -0.830663,1.2740783 h -0.0014 v 5.3798983 z M 74.369893,-9.3720616 c 0.273,-0.161 0.595979,-0.252989 0.937979,-0.252989 0.339,0 0.659325,0.091989 0.934325,0.252989 v -1.7279974 c 0,-0.382 -0.229951,-0.711235 -0.558951,-0.856235 -0.115,-0.05 -0.243374,-0.08083 -0.375374,-0.08083 -0.137,0 -0.262571,0.03083 -0.378571,0.08083 -0.33,0.145 -0.557124,0.472235 -0.557124,0.856235 h -0.0023 z m -42.704968,-0.451179 c 0.205,-0.118 0.443232,-0.1881434 0.698232,-0.1881434 0.254,0 0.492776,0.070143 0.697776,0.1881434 v -1.2868644 c 0,-0.284 -0.17193,-0.529409 -0.41693,-0.638409 -0.085,-0.036 -0.179846,-0.05982 -0.280846,-0.05982 -0.1,0 -0.194129,0.02382 -0.283129,0.05982 -0.244,0.109 -0.413733,0.354409 -0.413733,0.638409 h -0.0014 z m 27.98044,-1.0964384 c 0.273,-0.16 0.595152,-0.253445 0.936152,-0.253445 0.339,0 0.661152,0.09344 0.936152,0.253445 v -1.727997 c 0,-0.382 -0.228952,-0.710148 -0.558952,-0.857148 -0.115,-0.047 -0.2442,-0.07809 -0.3772,-0.07809 -0.133,0 -0.262114,0.03109 -0.378114,0.07809 -0.328,0.147 -0.557125,0.474148 -0.557125,0.857148 h -9.13e-4 z m -27.602326,-1.177723 c 0.098,-0.036 0.206118,-0.0548 0.320118,-0.0548 0.114,0 0.219748,0.0188 0.318748,0.0548 l -0.321945,-6.444827 z m 42.944258,-0.155264 c 0.097,-0.017 0.205118,-0.02603 0.320118,-0.02603 0.112,0 0.219835,0.009 0.317835,0.02603 l -0.321031,-3.130853 z m -28.41381,-2.877407 c 0.551,-0.319 1.188021,-0.503695 1.870021,-0.503695 0.683,0 1.320933,0.184695 1.870933,0.503695 v -3.453712 c 0,-0.765 -0.458335,-1.419187 -1.113335,-1.710187 -0.233,-0.102 -0.486772,-0.160744 -0.755772,-0.160744 -0.27,0 -0.524228,0.05874 -0.756228,0.160744 -0.655,0.291 -1.115619,0.945187 -1.115619,1.710187 z m -24.711215,-0.482232 c 3.693,0 6.688235,-2.99477 6.688235,-6.68777 0,-3.693 -2.995235,-6.688225 -6.688235,-6.688225 -3.693,0 -6.687778,2.995225 -6.687778,6.688225 0,3.693 2.994778,6.68777 6.687778,6.68777 z m 25.826834,-5.545209 c 0.232,-0.102 0.485772,-0.161657 0.755772,-0.161657 0.269,0 0.523228,0.05966 0.756228,0.161657 l -0.758055,-19.062768 z" />
        <path transform="translate(269.4189,5585.5815)"
          d="m 0,0 c -24.478,0 -44.32,-19.968 -44.32,-44.601 0,-0.019 0.002,-0.04 0.002,-0.059 h 88.637 c 0,0.019 0.002,0.04 0.002,0.059 C 44.321,-19.968 24.478,0 0,0 m 0,-3 c 21.803,0 39.716,-17.088 41.219,-38.66 H -41.218 C -39.715,-20.088 -21.802,-3 0,-3" />
        <path transform="translate(274.0586,5562.1455)"
          d="M 0,0 -0.758,19.063 -1.512,0 C -1.28,0.102 -1.026,0.162 -0.756,0.162 -0.487,0.162 -0.233,0.102 0,0" />
        <path transform="translate(257.5391,5553.0854)"
          d="M 0,0 -0.321,6.445 -0.639,0 c 0.098,0.036 0.206,0.055 0.321,0.055 C -0.205,0.055 -0.099,0.036 0,0" />
        <path transform="translate(275.1714,5556.1182)"
          d="M 0,0 V 3.454 C 0,4.219 -0.458,4.873 -1.113,5.164 -1.346,5.267 -1.6,5.326 -1.869,5.326 -2.139,5.326 -2.393,5.267 -2.625,5.164 -3.28,4.873 -3.741,4.219 -3.741,3.454 V 0 c 0.551,0.319 1.189,0.504 1.87,0.504 C -1.188,0.504 -0.549,0.319 0,0" />
        <path transform="translate(286.375,5551.9082)"
          d="m 0,0 v 1.728 c 0,0.382 -0.229,0.71 -0.56,0.856 -0.114,0.048 -0.243,0.08 -0.377,0.08 -0.132,0 -0.261,-0.032 -0.377,-0.08 C -1.642,2.438 -1.871,2.111 -1.871,1.728 H -1.872 V 0 c 0.273,0.161 0.595,0.253 0.935,0.253 C -0.597,0.253 -0.275,0.161 0,0" />
        <path transform="translate(257.9189,5550.8115)"
          d="m 0,0 v 1.286 c 0,0.285 -0.173,0.53 -0.418,0.639 -0.085,0.036 -0.18,0.06 -0.28,0.06 -0.101,0 -0.195,-0.024 -0.283,-0.06 C -1.226,1.816 -1.396,1.571 -1.396,1.286 v 0 V 0 c 0.205,0.118 0.442,0.188 0.698,0.188 C -0.444,0.188 -0.206,0.118 0,0" />
        <path transform="translate(301.0996,5550.3608)"
          d="M 0,0 V 1.728 C 0,2.11 -0.23,2.439 -0.559,2.584 -0.674,2.634 -0.802,2.665 -0.935,2.665 -1.071,2.665 -1.197,2.634 -1.313,2.584 -1.643,2.439 -1.87,2.111 -1.87,1.728 H -1.872 V 0 c 0.273,0.161 0.596,0.253 0.937,0.253 0.34,0 0.66,-0.092 0.935,-0.253" />
        <path transform="translate(253.4077,5560.9912)"
          d="m 0,0 c 0,-3.692 -2.995,-6.688 -6.688,-6.688 -3.693,0 -6.688,2.996 -6.688,6.688 0,3.693 2.995,6.688 6.688,6.688 C -2.995,6.688 0,3.693 0,0" />
      </g>
    </g>
  </g>
</svg>
