<svg viewBox="0 0 364 100" version="1.1" class="logo" aria-labelledby="logo-title">
  <defs id="defs1">
    <clipPath clipPathUnits="userSpaceOnUse" id="clipPath1">
      <path id="path1"
        d="m 225.272,5540.921 c 0,-24.402 19.783,-44.184 44.185,-44.184 v 0 c 24.403,0 44.184,19.782 44.184,44.184 v 0 c 0,24.402 -19.781,44.184 -44.184,44.184 v 0 c -24.402,0 -44.185,-19.782 -44.185,-44.184" />
    </clipPath>
    <clipPath clipPathUnits="userSpaceOnUse" id="clipPath2">
      <path id="path2"
        d="m -110.0591,-2.9530013 c 0,-24.4019987 19.782997,-44.1839997 44.184997,-44.1839997 v 0 c 24.402999,0 44.184,19.782001 44.184,44.1839997 v 0 c 0,24.4020013 -19.781001,44.1840013 -44.184,44.1840013 v 0 c -24.402,0 -44.184997,-19.782 -44.184997,-44.1840013" />
    </clipPath>
  </defs>
  <title id="logo-title">Логитип Федерации Го Санкт-Петербурга</title>
  <g id="g7" class="logo">
    <g id="g5" class="logo__logo">
      <path transform="matrix(1.1316185,0,0,-1.13162,124.54492,46.657804)" clip-path="url(#clipPath2)"
        d="m 0,0 h -31.099 v 3.737 h -0.61 c 0,1.365 -1.548,2.47 -3.457,2.47 -1.914,0 -3.461,-1.105 -3.461,-2.47 h -0.611 V 0 h -4.193 c 0.044,0.126 0.08,0.257 0.08,0.399 0,0.683 -0.552,1.237 -1.236,1.237 -0.357,0 -0.673,-0.157 -0.898,-0.399 -0.271,0.531 -0.791,0.899 -1.404,0.982 v 1.518 h -1.132 v 2.211 c 0,0.762 -0.459,1.418 -1.115,1.71 -0.233,0.102 -0.487,0.161 -0.757,0.161 -0.269,0 -0.523,-0.059 -0.755,-0.161 -0.656,-0.29 -1.115,-0.947 -1.115,-1.71 h -0.001 V 3.737 h -6.523 v 4.407 c 0,1.383 -0.753,2.587 -1.873,3.235 -0.549,0.321 -1.187,0.506 -1.868,0.506 -0.684,0 -1.322,-0.187 -1.872,-0.506 -1.118,-0.648 -1.871,-1.852 -1.871,-3.235 V 3.737 0 h -3.038 c 0,0.636 -0.517,1.154 -1.153,1.156 -0.383,0.604 -1.054,1.007 -1.822,1.007 -0.626,0 -1.188,-0.273 -1.584,-0.701 -0.044,0.005 -0.088,0.015 -0.132,0.015 -0.815,0 -1.476,-0.662 -1.476,-1.477 h -1.74 v 5.38 c 0,0.57 -0.342,1.057 -0.832,1.273 -0.173,0.076 -0.362,0.122 -0.562,0.122 -0.202,0 -0.391,-0.046 -0.564,-0.122 -0.489,-0.215 -0.831,-0.703 -0.831,-1.273 h -0.001 V 0 h -38.564 l -3.347,-3.012 H 3.41 Z" />
      <g id="g4" transform="matrix(1.1316185,0,0,-1.13162,-254.92196,6320.2165)" clip-path="url(#clipPath1)">
        <path transform="translate(224.8574,5540.9219)"
          d="M 0.09194448,-2.8852222 C 1.5783799,-26.17293 20.936767,-44.600098 44.599805,-44.600098 c 23.662076,0 43.020969,18.427168 44.507403,41.7148758 h -9.732327 v -3.7372963 h -0.610097 c 0,-1.365 -1.547912,-2.4696112 -3.456912,-2.4696112 -1.914,0 -3.461022,1.1046112 -3.461022,2.4696112 h -0.611011 v 3.7372963 h -4.193047 c 0.044,-0.127 0.07991,-0.2580332 0.07991,-0.4000332 0,-0.681 -0.55172,-1.2361756 -1.23572,-1.2361756 -0.357,0 -0.673163,0.1572066 -0.899163,0.3982066 -0.27,-0.53 -0.790858,-0.8989033 -1.402858,-0.9809033 v -1.5183908 h -1.132972 v -2.2115989 c 0,-0.762 -0.459249,-1.4172746 -1.114249,-1.7092746 -0.233,-0.102 -0.487142,-0.160744 -0.757142,-0.160744 -0.269,0 -0.522771,0.05874 -0.755771,0.160744 -0.655,0.29 -1.114249,0.9462746 -1.114249,1.7092746 h -9.14e-4 v 2.2115989 H 52.18674 v -4.4067585 c 0,-1.383 -0.75276,-2.587971 -1.87276,-3.234971 -0.549,-0.322 -1.187194,-0.505978 -1.868194,-0.505978 -0.684,0 -1.322217,0.186978 -1.873217,0.505978 -1.117,0.647 -1.869564,1.851971 -1.869564,3.234971 v 4.4067585 3.7372963 h -3.038156 c 0,-0.636 -0.517065,-1.1542603 -1.153065,-1.1562603 -0.383,-0.604 -1.054071,-1.0069328 -1.822071,-1.0069328 -0.626,0 -1.187696,0.272058 -1.583696,0.700058 -0.044,-0.004 -0.08843,-0.014156 -0.132431,-0.014156 -0.816,0 -1.475923,0.6622915 -1.475923,1.4772915 H 33.75779 v -5.3798983 c 0,-0.57 -0.342033,-1.0570783 -0.832033,-1.2740783 -0.173,-0.076 -0.362062,-0.1219279 -0.563062,-0.1219279 -0.201,0 -0.390061,0.045928 -0.563061,0.1219279 -0.489,0.215 -0.830663,0.7040783 -0.830663,1.2740783 h -0.0014 v 5.3798983 z M 74.369893,-9.3720616 c 0.273,-0.161 0.595979,-0.252989 0.937979,-0.252989 0.339,0 0.659325,0.091989 0.934325,0.252989 v -1.7279974 c 0,-0.382 -0.229951,-0.711235 -0.558951,-0.856235 -0.115,-0.05 -0.243374,-0.08083 -0.375374,-0.08083 -0.137,0 -0.262571,0.03083 -0.378571,0.08083 -0.33,0.145 -0.557124,0.472235 -0.557124,0.856235 h -0.0023 z m -42.704968,-0.451179 c 0.205,-0.118 0.443232,-0.1881434 0.698232,-0.1881434 0.254,0 0.492776,0.070143 0.697776,0.1881434 v -1.2868644 c 0,-0.284 -0.17193,-0.529409 -0.41693,-0.638409 -0.085,-0.036 -0.179846,-0.05982 -0.280846,-0.05982 -0.1,0 -0.194129,0.02382 -0.283129,0.05982 -0.244,0.109 -0.413733,0.354409 -0.413733,0.638409 h -0.0014 z m 27.98044,-1.0964384 c 0.273,-0.16 0.595152,-0.253445 0.936152,-0.253445 0.339,0 0.661152,0.09344 0.936152,0.253445 v -1.727997 c 0,-0.382 -0.228952,-0.710148 -0.558952,-0.857148 -0.115,-0.047 -0.2442,-0.07809 -0.3772,-0.07809 -0.133,0 -0.262114,0.03109 -0.378114,0.07809 -0.328,0.147 -0.557125,0.474148 -0.557125,0.857148 h -9.13e-4 z m -27.602326,-1.177723 c 0.098,-0.036 0.206118,-0.0548 0.320118,-0.0548 0.114,0 0.219748,0.0188 0.318748,0.0548 l -0.321945,-6.444827 z m 42.944258,-0.155264 c 0.097,-0.017 0.205118,-0.02603 0.320118,-0.02603 0.112,0 0.219835,0.009 0.317835,0.02603 l -0.321031,-3.130853 z m -28.41381,-2.877407 c 0.551,-0.319 1.188021,-0.503695 1.870021,-0.503695 0.683,0 1.320933,0.184695 1.870933,0.503695 v -3.453712 c 0,-0.765 -0.458335,-1.419187 -1.113335,-1.710187 -0.233,-0.102 -0.486772,-0.160744 -0.755772,-0.160744 -0.27,0 -0.524228,0.05874 -0.756228,0.160744 -0.655,0.291 -1.115619,0.945187 -1.115619,1.710187 z m -24.711215,-0.482232 c 3.693,0 6.688235,-2.99477 6.688235,-6.68777 0,-3.693 -2.995235,-6.688225 -6.688235,-6.688225 -3.693,0 -6.687778,2.995225 -6.687778,6.688225 0,3.693 2.994778,6.68777 6.687778,6.68777 z m 25.826834,-5.545209 c 0.232,-0.102 0.485772,-0.161657 0.755772,-0.161657 0.269,0 0.523228,0.05966 0.756228,0.161657 l -0.758055,-19.062768 z" />
        <path transform="translate(269.4189,5585.5815)"
          d="m 0,0 c -24.478,0 -44.32,-19.968 -44.32,-44.601 0,-0.019 0.002,-0.04 0.002,-0.059 h 88.637 c 0,0.019 0.002,0.04 0.002,0.059 C 44.321,-19.968 24.478,0 0,0 m 0,-3 c 21.803,0 39.716,-17.088 41.219,-38.66 H -41.218 C -39.715,-20.088 -21.802,-3 0,-3" />
        <path transform="translate(274.0586,5562.1455)"
          d="M 0,0 -0.758,19.063 -1.512,0 C -1.28,0.102 -1.026,0.162 -0.756,0.162 -0.487,0.162 -0.233,0.102 0,0" />
        <path transform="translate(257.5391,5553.0854)"
          d="M 0,0 -0.321,6.445 -0.639,0 c 0.098,0.036 0.206,0.055 0.321,0.055 C -0.205,0.055 -0.099,0.036 0,0" />
        <path transform="translate(275.1714,5556.1182)"
          d="M 0,0 V 3.454 C 0,4.219 -0.458,4.873 -1.113,5.164 -1.346,5.267 -1.6,5.326 -1.869,5.326 -2.139,5.326 -2.393,5.267 -2.625,5.164 -3.28,4.873 -3.741,4.219 -3.741,3.454 V 0 c 0.551,0.319 1.189,0.504 1.87,0.504 C -1.188,0.504 -0.549,0.319 0,0" />
        <path transform="translate(286.375,5551.9082)"
          d="m 0,0 v 1.728 c 0,0.382 -0.229,0.71 -0.56,0.856 -0.114,0.048 -0.243,0.08 -0.377,0.08 -0.132,0 -0.261,-0.032 -0.377,-0.08 C -1.642,2.438 -1.871,2.111 -1.871,1.728 H -1.872 V 0 c 0.273,0.161 0.595,0.253 0.935,0.253 C -0.597,0.253 -0.275,0.161 0,0" />
        <path transform="translate(257.9189,5550.8115)"
          d="m 0,0 v 1.286 c 0,0.285 -0.173,0.53 -0.418,0.639 -0.085,0.036 -0.18,0.06 -0.28,0.06 -0.101,0 -0.195,-0.024 -0.283,-0.06 C -1.226,1.816 -1.396,1.571 -1.396,1.286 v 0 V 0 c 0.205,0.118 0.442,0.188 0.698,0.188 C -0.444,0.188 -0.206,0.118 0,0" />
        <path transform="translate(301.0996,5550.3608)"
          d="M 0,0 V 1.728 C 0,2.11 -0.23,2.439 -0.559,2.584 -0.674,2.634 -0.802,2.665 -0.935,2.665 -1.071,2.665 -1.197,2.634 -1.313,2.584 -1.643,2.439 -1.87,2.111 -1.87,1.728 H -1.872 V 0 c 0.273,0.161 0.596,0.253 0.937,0.253 0.34,0 0.66,-0.092 0.935,-0.253" />
        <path transform="translate(253.4077,5560.9912)"
          d="m 0,0 c 0,-3.692 -2.995,-6.688 -6.688,-6.688 -3.693,0 -6.688,2.996 -6.688,6.688 0,3.693 2.995,6.688 6.688,6.688 C -2.995,6.688 0,3.693 0,0" />
      </g>
    </g>
    <g id="text5" class="logo__text"
      transform="translate(-1.4308454,104.296)">
      <path
        d="m 127.54339,-88.896562 q 3.44654,0 5.88479,2.456577 2.45657,2.456577 2.45657,5.903118 0,3.446541 -2.45657,5.903119 -2.43825,2.438244 -5.88479,2.438244 -1.50328,0 -2.8599,-0.494982 v 7.736385 h -3.15321 v -7.736385 q -1.35662,0.494982 -2.8599,0.494982 -3.44654,0 -5.90312,-2.438244 -2.43824,-2.456578 -2.43824,-5.903119 0,-3.446541 2.43824,-5.884785 2.45658,-2.456578 5.90312,-2.456578 1.50328,0 2.8599,0.494982 v -2.841563 h 3.15321 v 2.841563 q 1.39329,-0.513314 2.8599,-0.513314 z m -8.87301,13.529507 q 1.55828,0 2.8599,-0.843303 v -8.653018 q -1.31996,-0.861635 -2.8599,-0.861635 -2.14492,0 -3.66653,1.521611 -1.52161,1.521611 -1.52161,3.666533 0,2.144922 1.52161,3.666533 1.52161,1.503279 3.66653,1.503279 z m 8.87301,0 q 2.14492,0 3.66653,-1.503279 1.52161,-1.521611 1.52161,-3.666533 0,-2.144922 -1.52161,-3.666533 -1.52161,-1.521611 -3.66653,-1.521611 -1.53994,0 -2.8599,0.861635 v 8.653018 q 1.30162,0.843303 2.8599,0.843303 z m 23.70414,7.278068 q 0.32999,1.503279 0.67831,3.153219 h -14.53781 v -26.27071 h 14.53781 q -0.38499,1.888264 -0.67831,3.171551 h -10.68795 v 5.628128 h 7.20474 q -0.16499,0.75164 -0.69664,3.153219 h -6.5081 v 11.164593 z m 18.84598,0.01833 h 3.17155 l -1.37495,6.32477 h -3.17155 l 0.69664,-3.171551 H 156.619 v 3.171551 h -3.17155 v -6.32477 h 2.78656 l 5.00482,-23.080826 0.0183,-0.03667 h 8.83635 z m -3.15322,0 v -19.94594 h -3.20822 l -4.32651,19.94594 z m 21.68755,-0.01833 q 0.32998,1.503279 0.6783,3.153219 h -14.5378 v -26.27071 h 14.5378 q -0.38498,1.888264 -0.6783,3.171551 h -10.68795 v 5.628128 h 7.20474 q -0.165,0.75164 -0.69664,3.153219 h -6.5081 v 11.164593 z m 9.23965,-23.117491 q 3.22655,0.421651 5.40814,2.82323 2.18159,2.40158 2.10826,5.4998 -0.055,2.511575 -1.63161,4.601499 -1.57661,2.089924 -4.08818,2.969892 l -5.6648,1.668273 v 8.689683 h -3.17155 v -26.27071 h 6.92975 z m 0.78831,12.906197 q 1.57661,-0.568313 2.54824,-1.8516 0.98996,-1.283286 1.0083,-2.804898 0.0367,-1.869932 -1.31996,-3.336545 -1.33828,-1.484946 -3.33654,-1.778268 h -3.55654 v 11.14626 z m 13.73117,-12.92453 q 0.9533,4.381507 2.84156,13.144522 1.88827,8.763014 2.84157,13.144521 h -3.17155 l -0.165,-0.769972 -0.0367,-0.201659 q -0.29333,-1.246622 -1.20996,-2.236586 -0.91663,-0.989964 -2.23658,-1.44828 l -3.35488,-0.989964 -1.22829,5.646461 h -3.15322 q 0.9533,-4.381507 2.84156,-13.144521 1.9066,-8.763015 2.8599,-13.144522 z m -0.12833,18.625989 q 0.62331,0.201659 1.09996,0.458316 -0.42165,-1.979928 -1.28328,-5.884785 -0.84331,-3.923191 -1.26496,-5.903119 -0.36665,1.704938 -1.11829,5.133147 -0.75164,3.409875 -1.11829,5.114813 z m 21.87087,4.491503 h 3.15322 q -0.0367,0.238324 -0.14667,0.696641 -0.0917,0.458317 -0.14666,0.696641 l -0.38498,1.778269 -0.69664,3.153218 h -3.15322 l 0.67831,-3.153218 h -13.8595 v -26.27071 h 3.15322 v 23.099159 h 8.23137 v -23.099159 h 3.17155 z m 15.67442,-23.099159 h 3.17156 v 26.27071 h -3.17156 v -18.974309 l -8.21303,18.974309 h -3.17155 v -26.27071 h 3.17155 v 18.974309 z m 19.23097,-0.01833 v 26.289043 h -3.17155 v -8.689684 l -4.4915,-1.319952 -3.61154,10.009636 h -3.28154 l 4.03318,-11.164594 q -1.81493,-1.118292 -2.91489,-2.914893 -1.08163,-1.814934 -1.11829,-3.868193 -0.0733,-3.09822 2.10825,-5.4998 2.18159,-2.401579 5.40814,-2.82323 l 0.0917,-0.01833 z m -3.17155,14.299479 V -88.05326 h -3.55654 q -2.01659,0.293323 -3.37321,1.778269 -1.33828,1.466613 -1.30162,3.336545 0.0183,1.521611 1.0083,2.804898 0.98997,1.264954 2.56657,1.833267 z m 14.79446,-14.281146 h 14.55614 q -0.25666,1.264954 -0.69664,3.171551 h -10.68795 v 23.099159 h -3.17155 z m 38.20528,7.864713 q 1.08163,2.493243 1.08163,5.243143 0,2.7499 -1.08163,5.243142 -1.06329,2.493243 -2.87823,4.308177 -1.7966,1.796601 -4.28984,2.878228 -2.49324,1.063295 -5.24314,1.063295 -2.7499,0 -5.24314,-1.063295 -2.49325,-1.081627 -4.30818,-2.878228 -1.7966,-1.814934 -2.87823,-4.308177 -1.06329,-2.493242 -1.06329,-5.243142 0,-2.7499 1.06329,-5.243143 1.08163,-2.493242 2.87823,-4.289843 1.81493,-1.814934 4.30818,-2.878229 2.49324,-1.081627 5.24314,-1.081627 2.7499,0 5.24314,1.081627 2.49324,1.063295 4.28984,2.878229 1.81494,1.796601 2.87823,4.289843 z m -2.07159,5.243143 q 0,-2.804898 -1.39328,-5.169812 -1.37495,-2.383246 -3.7582,-3.758196 -2.38324,-1.393283 -5.18814,-1.393283 -2.8049,0 -5.18815,1.393283 -2.36491,1.37495 -3.75819,3.758196 -1.37495,2.364914 -1.37495,5.169812 0,2.804898 1.37495,5.188144 1.39328,2.383247 3.75819,3.776529 2.38325,1.37495 5.18815,1.37495 2.10826,0 4.01485,-0.806637 1.9066,-0.82497 3.29988,-2.218253 1.39329,-1.393282 2.19992,-3.299879 0.82497,-1.906598 0.82497,-4.014854 z"
        id="path6" />
      <path
        d="m 132.52987,-20.209762 q -1.83326,1.558276 -4.08818,2.383246 -2.23658,0.82497 -4.61983,0.82497 -2.7499,0 -5.24314,-1.063295 -2.49325,-1.081627 -4.30818,-2.878228 -1.7966,-1.814934 -2.87823,-4.308177 -1.06329,-2.493242 -1.06329,-5.243142 0,-2.676569 1.02663,-5.133146 1.02663,-2.47491 2.95156,-4.39984 1.92492,-1.92493 4.36317,-2.933227 2.45658,-1.026629 5.15148,-1.026629 2.38325,0 4.63816,0.82497 2.25492,0.82497 4.06985,2.364914 l 1.19163,1.026629 -2.03493,2.419912 -1.20995,-1.026629 q -2.9149,-2.456578 -6.65476,-2.456578 -2.8049,0 -5.18815,1.393283 -2.36491,1.37495 -3.75819,3.758197 -1.37495,2.383246 -1.37495,5.188144 0,2.804898 1.37495,5.188144 1.39328,2.364914 3.75819,3.758197 2.38325,1.37495 5.18815,1.37495 3.73986,0 6.65476,-2.456577 l 1.20995,-1.008297 2.03493,2.401579 z m 10.46796,-23.410815 q 0.95329,4.381507 2.84156,13.144522 1.88826,8.763014 2.84156,13.144521 h -3.17155 l -0.16499,-0.769972 -0.0367,-0.201659 q -0.29332,-1.246622 -1.20995,-2.236585 -0.91664,-0.989964 -2.23659,-1.448281 l -3.35488,-0.989964 -1.22829,5.646461 h -3.15321 q 0.95329,-4.381507 2.84156,-13.144521 1.9066,-8.763015 2.85989,-13.144522 z m -0.12833,18.625989 q 0.62331,0.201659 1.09996,0.458316 -0.42165,-1.979928 -1.28329,-5.884785 -0.8433,-3.923191 -1.26495,-5.903119 -0.36666,1.704938 -1.1183,5.133147 -0.75164,3.409876 -1.11829,5.114813 z m 18.69932,-18.607656 h 3.17155 v 26.27071 h -3.17155 v -8.763014 h -8.21304 v 8.763014 h -3.17155 v -26.27071 h 3.17155 v 14.336145 h 8.21304 z m 19.23096,0 q -1.22828,1.558277 -3.68486,4.67483 -2.43825,3.116553 -3.66653,4.67483 l 7.35139,16.92105 h -3.17155 l -6.21477,-14.336145 -1.99826,2.548241 v 11.787904 h -3.17155 v -26.27071 h 3.17155 v 9.367992 q 2.45658,-3.134886 7.36973,-9.367992 z m 1.50328,-0.01833 h 14.55614 v 0.01833 q -0.11,0.531647 -0.34832,1.576609 -0.23833,1.044962 -0.34832,1.576609 h -5.00482 v 23.117492 h -3.15322 v -23.117492 h -5.70146 z m 29.20394,14.84946 h -13.14452 v -3.171552 H 211.507 Z m 1.48495,-14.84946 h 14.55614 v 26.289043 h -3.17155 v -23.117492 h -8.21304 v 23.117492 h -3.17155 z m 29.91891,23.135825 q 0.32998,1.503278 0.6783,3.153218 h -14.5378 v -26.27071 h 14.5378 q -0.38498,1.888265 -0.6783,3.171551 h -10.68795 v 5.628129 h 7.20474 q -0.165,0.751639 -0.69664,3.153218 h -6.5081 v 11.164594 z m 2.19993,-23.135825 h 14.55613 v 0.01833 q -0.10999,0.531647 -0.34832,1.576609 -0.23832,1.044962 -0.34832,1.576609 h -5.00482 v 23.117492 h -3.15322 v -23.117492 h -5.70145 z m 29.91889,23.135825 q 0.32999,1.503278 0.67831,3.153218 h -14.5378 v -26.27071 h 14.5378 q -0.38498,1.888265 -0.67831,3.171551 h -10.68794 v 5.628129 h 7.20474 q -0.165,0.751639 -0.69664,3.153218 h -6.5081 v 11.164594 z m 9.23967,-23.117492 q 3.22655,0.421651 5.40814,2.82323 2.18158,2.40158 2.10825,5.4998 -0.055,2.511575 -1.63161,4.601499 -1.5766,2.089924 -4.08818,2.969892 l -5.66479,1.668273 v 8.689683 h -3.17155 v -26.27071 h 6.92974 z m 0.7883,12.906197 q 1.57661,-0.568313 2.54824,-1.8516 0.98997,-1.283286 1.0083,-2.804897 0.0367,-1.869932 -1.31995,-3.336546 -1.33829,-1.484946 -3.33655,-1.778268 h -3.55653 v 11.146261 z m 17.06772,-2.566574 q 2.51157,0.879968 4.08818,2.988225 1.57661,2.089924 1.63161,4.601499 0.0733,3.098221 -2.10826,5.4998 -2.18158,2.401579 -5.40813,2.82323 l -0.11,0.01833 h -6.92975 v -26.289043 h 12.68621 q -0.38499,1.888265 -0.67831,3.171551 h -8.85468 v 5.518133 z m -2.10826,12.759536 q 1.99826,-0.293323 3.33655,-1.759936 1.35661,-1.484946 1.31995,-3.354878 -0.0183,-1.521611 -1.0083,-2.786565 -0.97163,-1.283287 -2.54824,-1.851599 l -4.6565,-1.37495 v 11.127928 z m 18.88265,-23.099159 h 3.15322 l -5.70146,13.144521 -1.57661,3.629868 -4.14318,9.496321 h -3.15322 l 5.70146,-13.126189 -5.70146,-13.144521 h 3.15322 l 4.14318,9.496321 z m 11.71458,0 q 3.22654,0.421651 5.40813,2.82323 2.18159,2.40158 2.10826,5.4998 -0.055,2.511575 -1.63161,4.601499 -1.57661,2.089924 -4.08818,2.969892 l -5.6648,1.668273 v 8.689683 h -3.17155 v -26.27071 h 6.92975 z m 0.7883,12.906197 q 1.57661,-0.568313 2.54824,-1.8516 0.98996,-1.283286 1.0083,-2.804897 0.0367,-1.869932 -1.31995,-3.336546 -1.33829,-1.484946 -3.33655,-1.778268 h -3.55654 v 11.146261 z m 8.23137,-12.906197 h 14.55614 q -0.25666,1.264954 -0.69665,3.171551 h -10.68794 v 23.099159 h -3.17155 z m 19.67095,-0.01833 q 0.9533,4.381507 2.84157,13.144522 1.88826,8.763014 2.84156,13.144521 h -3.17155 l -0.165,-0.769972 -0.0367,-0.201659 q -0.29332,-1.246622 -1.20996,-2.236585 -0.91663,-0.989964 -2.23658,-1.448281 l -3.35488,-0.989964 -1.22829,5.646461 h -3.15322 q 0.9533,-4.381507 2.84157,-13.144521 1.90659,-8.763015 2.85989,-13.144522 z m -0.12833,18.625989 q 0.62331,0.201659 1.09996,0.458316 -0.42165,-1.979928 -1.28328,-5.884785 -0.84331,-3.923191 -1.26496,-5.903119 -0.36665,1.704938 -1.11829,5.133147 -0.75164,3.409876 -1.11829,5.114813 z"
        id="path7" />
    </g>
  </g>
</svg>
