<svg xmlns="http://www.w3.org/2000/svg" version="1.1" xmlns:xlink="http://www.w3.org/1999/xlink" width="1000" height="1000"><g clip-path="url(#SvgjsClipPath1047)"><rect width="1000" height="1000" fill="#ffffff"></rect><g transform="matrix(9,0,0,9,50,50)"><svg xmlns="http://www.w3.org/2000/svg" version="1.1" xmlns:xlink="http://www.w3.org/1999/xlink" width="100" height="100"><svg viewBox="0 0 100 100" version="1.1" id="svg1" xmlns="http://www.w3.org/2000/svg" xmlns:svg="http://www.w3.org/2000/svg">
  <defs id="defs1">
    <clipPath id="clipPath3415-1" clipPathUnits="userSpaceOnUse">
      <path id="path3417-5" d="m 225.272,5540.921 c 0,-24.402 19.783,-44.184 44.185,-44.184 v 0 c 24.403,0 44.184,19.782 44.184,44.184 v 0 c 0,24.402 -19.781,44.184 -44.184,44.184 v 0 c -24.402,0 -44.185,-19.782 -44.185,-44.184"></path>
    </clipPath>
  <clipPath id="SvgjsClipPath1047"><rect width="1000" height="1000" x="0" y="0" rx="500" ry="500"></rect></clipPath></defs>
  <g id="layer1">
    <g id="g1" transform="matrix(0.90529484,0,0,0.90529603,-117.98391,-68.687571)">
      <g id="g18063">
        <g id="g3411" transform="matrix(1.25,0,0,-1.25,-151.2635,7057.2543)">
          <g id="g3413" clip-path="url(#clipPath3415-1)">
            <g id="g3419" transform="translate(224.8574,5540.9219)">
              <path d="M 0,0 V -0.001 C 0,-24.633 19.968,-44.6 44.6,-44.6 c 24.631,0 44.599,19.967 44.599,44.599 V 0 Z" style="fill:#000000;fill-opacity:1;fill-rule:evenodd;stroke:none" id="path3421"></path>
            </g>
            <g id="g3423" transform="translate(226.6201,5542.4219)">
              <path d="M 0,0 C 0.738,23.079 19.653,41.66 42.799,41.66 65.932,41.66 84.84,23.102 85.596,0 Z" style="fill:#ffffff;fill-opacity:1;fill-rule:evenodd;stroke:none" id="path3425"></path>
            </g>
            <g id="g3427" transform="translate(269.4189,5585.5815)">
              <path d="m 0,0 c -24.478,0 -44.32,-19.968 -44.32,-44.601 0,-0.019 0.002,-0.04 0.002,-0.059 h 88.637 c 0,0.019 0.002,0.04 0.002,0.059 C 44.321,-19.968 24.478,0 0,0 m 0,-3 c 21.803,0 39.716,-17.088 41.219,-38.66 H -41.218 C -39.715,-20.088 -21.802,-3 0,-3" style="fill:#000000;fill-opacity:1;fill-rule:nonzero;stroke:none" id="path3429"></path>
            </g>
            <g id="g3431" transform="translate(338.7412,5542.5386)">
              <path d="m 0,0 h -124.827 l 3.347,-4.502 h 38.564 v -5.38 h 10e-4 c 0,-0.57 0.342,-1.059 0.831,-1.274 0.173,-0.076 0.362,-0.122 0.563,-0.122 0.201,0 0.39,0.046 0.563,0.122 0.49,0.217 0.832,0.704 0.832,1.274 v 5.38 h 1.74 c 0,-0.815 0.66,-1.477 1.476,-1.477 0.044,0 0.088,0.01 0.132,0.014 0.396,-0.428 0.958,-0.7 1.584,-0.7 0.768,0 1.439,0.403 1.822,1.007 0.636,0.002 1.153,0.52 1.153,1.156 h 3.038 v -3.737 -4.407 c 0,-1.383 0.753,-2.588 1.87,-3.235 0.551,-0.319 1.189,-0.506 1.873,-0.506 0.681,0 1.319,0.184 1.868,0.506 1.12,0.647 1.873,1.852 1.873,3.235 v 4.407 h 6.523 v -2.212 h 10e-4 c 0,-0.763 0.459,-1.419 1.114,-1.709 0.233,-0.102 0.487,-0.161 0.756,-0.161 0.27,0 0.524,0.059 0.757,0.161 0.655,0.292 1.114,0.947 1.114,1.709 v 2.212 h 1.133 v 1.518 c 0.612,0.082 1.133,0.451 1.403,0.981 0.226,-0.241 0.542,-0.398 0.899,-0.398 0.684,0 1.236,0.555 1.236,1.236 0,0.142 -0.036,0.273 -0.08,0.4 h 4.193 v -3.737 h 0.611 c 0,-1.365 1.547,-2.47 3.461,-2.47 1.909,0 3.457,1.105 3.457,2.47 h 0.61 v 3.737 H -3.41 Z" style="fill:#ffffff;fill-opacity:1;fill-rule:nonzero;stroke:none" id="path3433"></path>
            </g>
            <g id="g3435" transform="translate(272.5464,5519.7646)">
              <path d="M 0,0 0.754,-19.063 1.512,0 C 1.279,-0.102 1.025,-0.162 0.756,-0.162 0.486,-0.162 0.232,-0.102 0,0" style="fill:#ffffff;fill-opacity:1;fill-rule:nonzero;stroke:none" id="path3437"></path>
            </g>
            <g id="g3439" transform="translate(299.8447,5528.6694)">
              <path d="M 0,0 0.317,-3.131 0.638,0 C 0.54,-0.017 0.432,-0.026 0.32,-0.026 0.205,-0.026 0.097,-0.017 0,0" style="fill:#ffffff;fill-opacity:1;fill-rule:nonzero;stroke:none" id="path3441"></path>
            </g>
            <g id="g3443" transform="translate(256.9004,5528.8247)">
              <path d="M 0,0 0.317,-6.445 0.639,0 C 0.54,-0.036 0.434,-0.055 0.32,-0.055 0.206,-0.055 0.098,-0.036 0,0" style="fill:#ffffff;fill-opacity:1;fill-rule:nonzero;stroke:none" id="path3445"></path>
            </g>
            <g id="g3447" transform="translate(271.4307,5525.792)">
              <path d="m 0,0 v -3.454 c 0,-0.765 0.461,-1.419 1.116,-1.71 0.232,-0.102 0.486,-0.161 0.756,-0.161 0.269,0 0.523,0.059 0.756,0.161 0.655,0.291 1.113,0.945 1.113,1.71 V 0 C 3.191,-0.319 2.553,-0.504 1.87,-0.504 1.188,-0.504 0.551,-0.319 0,0" style="fill:#ffffff;fill-opacity:1;fill-rule:nonzero;stroke:none" id="path3449"></path>
            </g>
            <g id="g3451" transform="translate(284.5029,5530.002)">
              <path d="m 0,0 v -1.728 h 0.001 c 0,-0.383 0.229,-0.71 0.557,-0.857 0.116,-0.047 0.245,-0.078 0.378,-0.078 0.133,0 0.262,0.031 0.377,0.078 0.33,0.147 0.559,0.475 0.559,0.857 L 1.872,0 C 1.597,-0.16 1.275,-0.253 0.936,-0.253 0.595,-0.253 0.273,-0.16 0,0" style="fill:#ffffff;fill-opacity:1;fill-rule:nonzero;stroke:none" id="path3453"></path>
            </g>
            <g id="g3455" transform="translate(256.5225,5531.0986)">
              <path d="m 0,0 v -1.287 h 0.001 c 0,-0.284 0.17,-0.529 0.414,-0.638 0.089,-0.036 0.183,-0.06 0.283,-0.06 0.101,0 0.196,0.024 0.281,0.06 0.245,0.109 0.417,0.354 0.417,0.638 V 0 C 1.191,-0.118 0.952,-0.188 0.698,-0.188 0.443,-0.188 0.205,-0.118 0,0" style="fill:#ffffff;fill-opacity:1;fill-rule:nonzero;stroke:none" id="path3457"></path>
            </g>
            <g id="g3459" transform="translate(299.2275,5531.5498)">
              <path d="m 0,0 v -1.728 h 0.002 c 0,-0.384 0.227,-0.711 0.557,-0.856 0.116,-0.05 0.242,-0.081 0.379,-0.081 0.132,0 0.26,0.031 0.375,0.081 0.329,0.145 0.559,0.474 0.559,0.856 L 1.872,0 C 1.597,-0.161 1.277,-0.253 0.938,-0.253 0.596,-0.253 0.273,-0.161 0,0" style="fill:#ffffff;fill-opacity:1;fill-rule:nonzero;stroke:none" id="path3461"></path>
            </g>
            <g id="g3463" transform="translate(335.3311,5543.874)">
              <path d="m 0,0 h -31.099 v 3.737 h -0.61 c 0,1.365 -1.548,2.47 -3.457,2.47 -1.914,0 -3.461,-1.105 -3.461,-2.47 h -0.611 V 0 h -4.193 c 0.044,0.126 0.08,0.257 0.08,0.399 0,0.683 -0.552,1.237 -1.236,1.237 -0.357,0 -0.673,-0.157 -0.898,-0.399 -0.271,0.531 -0.791,0.899 -1.404,0.982 v 1.518 h -1.132 v 2.211 c 0,0.762 -0.459,1.418 -1.115,1.71 -0.233,0.102 -0.487,0.161 -0.757,0.161 -0.269,0 -0.523,-0.059 -0.755,-0.161 -0.656,-0.29 -1.115,-0.947 -1.115,-1.71 h -0.001 V 3.737 h -6.523 v 4.407 c 0,1.383 -0.753,2.587 -1.873,3.235 -0.549,0.321 -1.187,0.506 -1.868,0.506 -0.684,0 -1.322,-0.187 -1.872,-0.506 -1.118,-0.648 -1.871,-1.852 -1.871,-3.235 V 3.737 0 h -3.038 c 0,0.636 -0.517,1.154 -1.153,1.156 -0.383,0.604 -1.054,1.007 -1.822,1.007 -0.626,0 -1.188,-0.273 -1.584,-0.701 -0.044,0.005 -0.088,0.015 -0.132,0.015 -0.815,0 -1.476,-0.662 -1.476,-1.477 h -1.74 v 5.38 c 0,0.57 -0.342,1.057 -0.832,1.273 -0.173,0.076 -0.362,0.122 -0.562,0.122 -0.202,0 -0.391,-0.046 -0.564,-0.122 -0.489,-0.215 -0.831,-0.703 -0.831,-1.273 h -0.001 V 0 h -38.564 l -3.347,-3.012 H 3.41 Z" style="fill:#000000;fill-opacity:1;fill-rule:nonzero;stroke:none" id="path3465"></path>
            </g>
            <g id="g3467" transform="translate(274.0586,5562.1455)">
              <path d="M 0,0 -0.758,19.063 -1.512,0 C -1.28,0.102 -1.026,0.162 -0.756,0.162 -0.487,0.162 -0.233,0.102 0,0" style="fill:#000000;fill-opacity:1;fill-rule:nonzero;stroke:none" id="path3469"></path>
            </g>
            <g id="g3471" transform="translate(300.4824,5553.2407)">
              <path d="M 0,0 -0.32,3.131 -0.638,0 c 0.097,0.017 0.205,0.026 0.321,0.026 C -0.206,0.026 -0.098,0.017 0,0" style="fill:#000000;fill-opacity:1;fill-rule:nonzero;stroke:none" id="path3473"></path>
            </g>
            <g id="g3475" transform="translate(257.5391,5553.0854)">
              <path d="M 0,0 -0.321,6.445 -0.639,0 c 0.098,0.036 0.206,0.055 0.321,0.055 C -0.205,0.055 -0.099,0.036 0,0" style="fill:#000000;fill-opacity:1;fill-rule:nonzero;stroke:none" id="path3477"></path>
            </g>
            <g id="g3479" transform="translate(275.1714,5556.1182)">
              <path d="M 0,0 V 3.454 C 0,4.219 -0.458,4.873 -1.113,5.164 -1.346,5.267 -1.6,5.326 -1.869,5.326 -2.139,5.326 -2.393,5.267 -2.625,5.164 -3.28,4.873 -3.741,4.219 -3.741,3.454 V 0 c 0.551,0.319 1.189,0.504 1.87,0.504 C -1.188,0.504 -0.549,0.319 0,0" style="fill:#000000;fill-opacity:1;fill-rule:nonzero;stroke:none" id="path3481"></path>
            </g>
            <g id="g3483" transform="translate(286.375,5551.9082)">
              <path d="m 0,0 v 1.728 c 0,0.382 -0.229,0.71 -0.56,0.856 -0.114,0.048 -0.243,0.08 -0.377,0.08 -0.132,0 -0.261,-0.032 -0.377,-0.08 C -1.642,2.438 -1.871,2.111 -1.871,1.728 H -1.872 V 0 c 0.273,0.161 0.595,0.253 0.935,0.253 C -0.597,0.253 -0.275,0.161 0,0" style="fill:#000000;fill-opacity:1;fill-rule:nonzero;stroke:none" id="path3485"></path>
            </g>
            <g id="g3487" transform="translate(257.9189,5550.8115)">
              <path d="m 0,0 v 1.286 c 0,0.285 -0.173,0.53 -0.418,0.639 -0.085,0.036 -0.18,0.06 -0.28,0.06 -0.101,0 -0.195,-0.024 -0.283,-0.06 C -1.226,1.816 -1.396,1.571 -1.396,1.286 v 0 V 0 c 0.205,0.118 0.442,0.188 0.698,0.188 C -0.444,0.188 -0.206,0.118 0,0" style="fill:#000000;fill-opacity:1;fill-rule:nonzero;stroke:none" id="path3489"></path>
            </g>
            <g id="g3491" transform="translate(301.0996,5550.3608)">
              <path d="M 0,0 V 1.728 C 0,2.11 -0.23,2.439 -0.559,2.584 -0.674,2.634 -0.802,2.665 -0.935,2.665 -1.071,2.665 -1.197,2.634 -1.313,2.584 -1.643,2.439 -1.87,2.111 -1.87,1.728 H -1.872 V 0 c 0.273,0.161 0.596,0.253 0.937,0.253 0.34,0 0.66,-0.092 0.935,-0.253" style="fill:#000000;fill-opacity:1;fill-rule:nonzero;stroke:none" id="path3493"></path>
            </g>
            <g id="g3495" transform="translate(253.4077,5560.9912)">
              <path d="m 0,0 c 0,-3.692 -2.995,-6.688 -6.688,-6.688 -3.693,0 -6.688,2.996 -6.688,6.688 0,3.693 2.995,6.688 6.688,6.688 C -2.995,6.688 0,3.693 0,0" style="fill:#000000;fill-opacity:1;fill-rule:nonzero;stroke:none" id="path3497"></path>
            </g>
            <g id="g3499" transform="translate(253.4077,5518.6216)">
              <path d="m 0,0 c 0,-3.693 -2.995,-6.688 -6.688,-6.688 -3.693,0 -6.688,2.995 -6.688,6.688 0,3.693 2.995,6.688 6.688,6.688 C -2.995,6.688 0,3.693 0,0" style="fill:#ffffff;fill-opacity:1;fill-rule:nonzero;stroke:none" id="path3501"></path>
            </g>
          </g>
        </g>
      </g>
    </g>
  </g>
</svg></svg></g></g></svg>